<svg id="Capa_1" enable-background="new 0 0 512 512" height="512" viewBox="0 0 512 512" width="512" xmlns="http://www.w3.org/2000/svg"><g><path d="m109.71 73.24h365.72v438.76h-365.72z" fill="#bbe4f2"/><path d="m256 73.24h219.43v438.76h-219.43z" fill="#8cd4e5"/><path d="m402.29 146.29v292.47h-365.72v-438.76h219.43l55.64 102.4z" fill="#e6f3ff"/><path d="m402.29 146.29v292.47h-146.29v-438.76z" fill="#bbe4f2"/><path d="m256 0v146.286h146.286z" fill="#28abf9"/><g fill="#393e9f"><path d="m93.748 58.143h105.076v30h-105.076z"/><path d="m93.75 350.71h251.36v30h-251.36z"/><path d="m93.75 277.57h251.36v30h-251.36z"/><path d="m93.75 204.43h251.36v30h-251.36z"/><path d="m93.748 131.286h105.076v30h-105.076z"/></g><path d="m256 204.43h89.11v30h-89.11z" fill="#340d66"/><path d="m256 277.57h89.11v30h-89.11z" fill="#340d66"/><path d="m256 350.71h89.11v30h-89.11z" fill="#340d66"/></g></svg>