<svg id="Layer_1" enable-background="new 0 0 512 512" height="512" viewBox="0 0 512 512" width="512" xmlns="http://www.w3.org/2000/svg"><g><g id="XMLID_316_"><g><g id="XMLID_1290_"><g id="XMLID_1291_"><g id="XMLID_1292_"><g id="XMLID_1293_"><g id="XMLID_1294_"><g id="XMLID_1295_"><g id="XMLID_1297_"><g id="XMLID_1299_"><g id="XMLID_1300_"><g id="XMLID_1301_"><g id="XMLID_1302_"><g id="XMLID_1303_"><g id="XMLID_1304_"><g id="XMLID_1305_"><circle cx="256" cy="256" fill="#fedd55" r="256"/></g></g></g></g></g></g></g></g></g></g></g></g></g></g></g></g><path d="m511.97 258.345-205.96-205.96-231.464 308.434 27.917 28.213 11.802 50.741 58.313 58.313c26.15 9.01 54.212 13.914 83.422 13.914 140.601 0 254.709-113.352 255.97-253.655z" fill="#fcc63d"/><g><path d="m95.751 103.679v296.645c0 28.329 22.965 51.294 51.294 51.294h217.906c28.329 0 51.294-22.965 51.294-51.294v-237.704l-110.235-110.235h-158.965c-28.329 0-51.294 22.965-51.294 51.294z" fill="#fff"/><path d="m416.249 162.617v237.707c0 28.328-22.964 51.292-51.292 51.292h-108.96v-399.234h50.017z" fill="#eae1dc"/><path d="m416.245 162.62-110.235-110.235v110.235z" fill="#cec5c0"/></g><path d="m417.391 367.51h-322.782c-18.459 0-33.424-14.964-33.424-33.424v-87.018c0-18.459 14.964-33.424 33.424-33.424h322.782c18.459 0 33.424 14.964 33.424 33.424v87.018c0 18.46-14.965 33.424-33.424 33.424z" fill="#238cf8"/><path d="m450.81 247.07v87.02c0 18.46-14.96 33.42-33.42 33.42h-161.39v-153.87h161.39c18.46 0 33.42 14.97 33.42 33.43z" fill="#0768dd"/><g><path d="m177.415 255.264h-23.27v.098h-.027l.041 7.546c.003 1.702.04 21.539.04 27.608 0 7.733.072 27.902.072 27.902l.027 7.501 7.501-.028c.476-.002 11.713-.045 16.207-.123 17.02-.298 29.372-15.099 29.372-35.191.001-21.122-12.04-35.313-29.963-35.313zm.33 55.507c-1.927.034-5.222.061-8.323.081l-.222-40.588h8.214c13.885 0 14.964 15.548 14.964 20.313.001 13.773-7.349 20.067-14.633 20.194z" fill="#fff"/><path d="m358.39 300.582-4.821 5.746c-.489.583-1.017 1.127-1.57 1.62-2.824 2.516-6.438 3.791-10.742 3.791-11.668 0-21.162-9.493-21.162-21.162 0-11.668 9.493-21.161 21.162-21.161 4.243 0 8.332 1.248 11.827 3.609l6.214 4.198 8.397-12.429-6.214-4.199c-5.984-4.043-12.978-6.18-20.224-6.18-19.939 0-36.162 16.222-36.162 36.161 0 19.94 16.222 36.162 36.162 36.162 7.98 0 15.145-2.625 20.717-7.589 1.092-.973 2.13-2.043 3.086-3.182l4.821-5.745z" fill="#eae1dc"/><path d="m256.045 254.416c-19.94 0-36.162 16.222-36.162 36.161 0 19.94 16.222 36.162 36.162 36.162s36.162-16.223 36.162-36.162-16.222-36.161-36.162-36.161zm0 57.323c-11.669 0-21.162-9.493-21.162-21.162 0-11.668 9.493-21.161 21.162-21.161s21.162 9.493 21.162 21.161c0 11.669-9.493 21.162-21.162 21.162z" fill="#fff"/><path d="m256.05 254.42h-.05v15h.05c11.66 0 21.16 9.49 21.16 21.16s-9.5 21.16-21.16 21.16h-.05v15h.05c19.94 0 36.16-16.22 36.16-36.16s-16.22-36.16-36.16-36.16z" fill="#eae1dc"/></g></g></svg>